<?xml version="1.0" encoding="UTF-8" standalone="no"?>
<svg
   class="ionicon"
   viewBox="0 0 512 512"
   version="1.1"
   id="svg2"
   sodipodi:docname="icon.svg"
   inkscape:version="1.3.2 (091e20e, 2023-11-25, custom)"
   xmlns:inkscape="http://www.inkscape.org/namespaces/inkscape"
   xmlns:sodipodi="http://sodipodi.sourceforge.net/DTD/sodipodi-0.dtd"
   xmlns="http://www.w3.org/2000/svg"
   xmlns:svg="http://www.w3.org/2000/svg">
  <defs
     id="defs2" />
  <sodipodi:namedview
     id="namedview2"
     pagecolor="#ffffff"
     bordercolor="#000000"
     borderopacity="0.25"
     inkscape:showpageshadow="2"
     inkscape:pageopacity="0.0"
     inkscape:pagecheckerboard="0"
     inkscape:deskcolor="#d1d1d1"
     showguides="true"
     inkscape:zoom="1.6035156"
     inkscape:cx="221.70037"
     inkscape:cy="233.54933"
     inkscape:window-width="1920"
     inkscape:window-height="1017"
     inkscape:window-x="1912"
     inkscape:window-y="-8"
     inkscape:window-maximized="1"
     inkscape:current-layer="svg2" />
  <path
     d="M480 304.13v-32h-80V215.2c29.42-27.95 32-64.76 32-103.2V96h-32v16c0 28-1.86 48.15-9.9 63.84C368 128 324.32 112 256 112c-39.8 0-75.19 7.06-100.43 24.32-14.9 10.19-25.2 24.91-32.7 39.72C114 160.57 112 140.82 112 112V96H80v16c0 37.44 2.59 73.36 32 101.2v58.93H32v32l80-.13c0 19 3.7 53.09 10.39 69.69C96.6 396.76 80 422.31 80 464v16h32v-16c0-27.66 9.1-44.71 26.17-61.32C160 448 177 464 240 464V176h32v288c65 0 80-16 101.83-61.32C390.9 419.29 400 436.35 400 464v16h32v-16c0-41.68-16.6-67.23-42.39-90.31C396.3 357.09 400 323 400 304z"
     id="path1"
     style="fill:#ff0000;fill-opacity:1" />
  <path
     d="M256 32c-48.06 0-96 0-96 84 26.12-14 59.35-20 96-20 24.09 0 46.09 2.65 65.39 8 10.75 3 24.66 8.71 30.61 12 0-84-47.94-84-96-84z"
     id="path2"
     style="fill:#ff0000;fill-opacity:1" />
</svg>
